<svg width="126" height="47" viewBox="0 0 126 47" fill="none" xmlns="http://www.w3.org/2000/svg">
<path d="M12.992 31.214L10.22 41H9.12801L6.66401 32.656L4.14401 41L3.08001 41.014L0.364014 31.214H1.41401L3.65401 39.796L6.16001 31.214H7.25201L9.68801 39.796L11.942 31.214H12.992Z" fill="#151515"/>
<path d="M21.5471 36.786C21.5471 37.122 21.5378 37.3787 21.5191 37.556H15.1771C15.2051 38.1347 15.3451 38.6294 15.5971 39.04C15.8491 39.4507 16.1804 39.7634 16.5911 39.978C17.0018 40.1834 17.4498 40.286 17.9351 40.286C18.5698 40.286 19.1018 40.132 19.5311 39.824C19.9698 39.516 20.2591 39.1007 20.3991 38.578H21.4351C21.2484 39.3247 20.8471 39.936 20.2311 40.412C19.6244 40.8787 18.8591 41.112 17.9351 41.112C17.2164 41.112 16.5724 40.9534 16.0031 40.636C15.4338 40.3094 14.9858 39.852 14.6591 39.264C14.3418 38.6667 14.1831 37.9714 14.1831 37.178C14.1831 36.3847 14.3418 35.6894 14.6591 35.092C14.9764 34.4947 15.4198 34.0374 15.9891 33.72C16.5584 33.4027 17.2071 33.244 17.9351 33.244C18.6631 33.244 19.2978 33.4027 19.8391 33.72C20.3898 34.0374 20.8098 34.4667 21.0991 35.008C21.3978 35.54 21.5471 36.1327 21.5471 36.786ZM20.5531 36.758C20.5624 36.1887 20.4458 35.7034 20.2031 35.302C19.9698 34.9007 19.6478 34.5974 19.2371 34.392C18.8264 34.1867 18.3784 34.084 17.8931 34.084C17.1651 34.084 16.5444 34.3174 16.0311 34.784C15.5178 35.2507 15.2331 35.9087 15.1771 36.758H20.5531Z" fill="#151515"/>
<path d="M24.4461 35.05C24.6981 34.518 25.0854 34.084 25.6081 33.748C26.1401 33.412 26.7654 33.244 27.4841 33.244C28.1841 33.244 28.8094 33.4074 29.3601 33.734C29.9108 34.0514 30.3401 34.5087 30.6481 35.106C30.9654 35.694 31.1241 36.38 31.1241 37.164C31.1241 37.948 30.9654 38.6387 30.6481 39.236C30.3401 39.8334 29.9061 40.2954 29.3461 40.622C28.7954 40.9487 28.1748 41.112 27.4841 41.112C26.7561 41.112 26.1261 40.9487 25.5941 40.622C25.0714 40.286 24.6888 39.852 24.4461 39.32V41H23.4801V30.64H24.4461V35.05ZM30.1301 37.164C30.1301 36.5294 30.0041 35.9834 29.7521 35.526C29.5094 35.0594 29.1734 34.7047 28.7441 34.462C28.3148 34.2194 27.8294 34.098 27.2881 34.098C26.7654 34.098 26.2848 34.224 25.8461 34.476C25.4168 34.728 25.0761 35.0874 24.8241 35.554C24.5721 36.0207 24.4461 36.562 24.4461 37.178C24.4461 37.794 24.5721 38.3354 24.8241 38.802C25.0761 39.2687 25.4168 39.628 25.8461 39.88C26.2848 40.132 26.7654 40.258 27.2881 40.258C27.8294 40.258 28.3148 40.1367 28.7441 39.894C29.1734 39.642 29.5094 39.2827 29.7521 38.816C30.0041 38.34 30.1301 37.7894 30.1301 37.164Z" fill="#151515"/>
<path d="M37.8134 35.4V36.226H32.3674V35.4H37.8134Z" fill="#151515"/>
<path d="M40.0191 37.164C40.0191 36.38 40.1731 35.694 40.4811 35.106C40.7985 34.5087 41.2325 34.0514 41.7831 33.734C42.3431 33.4074 42.9731 33.244 43.6731 33.244C44.4011 33.244 45.0265 33.412 45.5491 33.748C46.0811 34.084 46.4638 34.5134 46.6971 35.036V33.356H47.6771V41H46.6971V39.306C46.4545 39.8287 46.0671 40.2627 45.5351 40.608C45.0125 40.944 44.3871 41.112 43.6591 41.112C42.9685 41.112 42.3431 40.9487 41.7831 40.622C41.2325 40.2954 40.7985 39.8334 40.4811 39.236C40.1731 38.6387 40.0191 37.948 40.0191 37.164ZM46.6971 37.178C46.6971 36.562 46.5711 36.0207 46.3191 35.554C46.0671 35.0874 45.7218 34.728 45.2831 34.476C44.8538 34.224 44.3778 34.098 43.8551 34.098C43.3138 34.098 42.8285 34.2194 42.3991 34.462C41.9698 34.7047 41.6291 35.0594 41.3771 35.526C41.1345 35.9834 41.0131 36.5294 41.0131 37.164C41.0131 37.7894 41.1345 38.34 41.3771 38.816C41.6291 39.2827 41.9698 39.642 42.3991 39.894C42.8285 40.1367 43.3138 40.258 43.8551 40.258C44.3778 40.258 44.8538 40.132 45.2831 39.88C45.7218 39.628 46.0671 39.2687 46.3191 38.802C46.5711 38.3354 46.6971 37.794 46.6971 37.178Z" fill="#151515"/>
<path d="M49.6064 37.178C49.6064 36.3847 49.7651 35.694 50.0824 35.106C50.3997 34.5087 50.8384 34.0514 51.3984 33.734C51.9584 33.4074 52.5977 33.244 53.3164 33.244C54.2591 33.244 55.0337 33.4774 55.6404 33.944C56.2564 34.4107 56.6531 35.0454 56.8304 35.848H55.7804C55.6497 35.2974 55.3651 34.868 54.9264 34.56C54.4971 34.2427 53.9604 34.084 53.3164 34.084C52.8031 34.084 52.3411 34.2007 51.9304 34.434C51.5197 34.6674 51.1931 35.0174 50.9504 35.484C50.7171 35.9414 50.6004 36.506 50.6004 37.178C50.6004 37.85 50.7171 38.4194 50.9504 38.886C51.1931 39.3527 51.5197 39.7027 51.9304 39.936C52.3411 40.1694 52.8031 40.286 53.3164 40.286C53.9604 40.286 54.4971 40.132 54.9264 39.824C55.3651 39.5067 55.6497 39.068 55.7804 38.508H56.8304C56.6531 39.292 56.2564 39.922 55.6404 40.398C55.0244 40.874 54.2497 41.112 53.3164 41.112C52.5977 41.112 51.9584 40.9534 51.3984 40.636C50.8384 40.3094 50.3997 39.852 50.0824 39.264C49.7651 38.6667 49.6064 37.9714 49.6064 37.178Z" fill="#151515"/>
<path d="M58.3323 37.178C58.3323 36.3847 58.491 35.694 58.8083 35.106C59.1257 34.5087 59.5643 34.0514 60.1243 33.734C60.6843 33.4074 61.3237 33.244 62.0423 33.244C62.985 33.244 63.7597 33.4774 64.3663 33.944C64.9823 34.4107 65.379 35.0454 65.5563 35.848H64.5063C64.3757 35.2974 64.091 34.868 63.6523 34.56C63.223 34.2427 62.6863 34.084 62.0423 34.084C61.529 34.084 61.067 34.2007 60.6563 34.434C60.2457 34.6674 59.919 35.0174 59.6763 35.484C59.443 35.9414 59.3263 36.506 59.3263 37.178C59.3263 37.85 59.443 38.4194 59.6763 38.886C59.919 39.3527 60.2457 39.7027 60.6563 39.936C61.067 40.1694 61.529 40.286 62.0423 40.286C62.6863 40.286 63.223 40.132 63.6523 39.824C64.091 39.5067 64.3757 39.068 64.5063 38.508H65.5563C65.379 39.292 64.9823 39.922 64.3663 40.398C63.7503 40.874 62.9757 41.112 62.0423 41.112C61.3237 41.112 60.6843 40.9534 60.1243 40.636C59.5643 40.3094 59.1257 39.852 58.8083 39.264C58.491 38.6667 58.3323 37.9714 58.3323 37.178Z" fill="#151515"/>
<path d="M74.4223 36.786C74.4223 37.122 74.4129 37.3787 74.3943 37.556H68.0523C68.0803 38.1347 68.2203 38.6294 68.4723 39.04C68.7243 39.4507 69.0556 39.7634 69.4663 39.978C69.8769 40.1834 70.3249 40.286 70.8103 40.286C71.4449 40.286 71.9769 40.132 72.4063 39.824C72.8449 39.516 73.1343 39.1007 73.2743 38.578H74.3103C74.1236 39.3247 73.7223 39.936 73.1063 40.412C72.4996 40.8787 71.7343 41.112 70.8103 41.112C70.0916 41.112 69.4476 40.9534 68.8783 40.636C68.3089 40.3094 67.8609 39.852 67.5343 39.264C67.2169 38.6667 67.0583 37.9714 67.0583 37.178C67.0583 36.3847 67.2169 35.6894 67.5343 35.092C67.8516 34.4947 68.2949 34.0374 68.8643 33.72C69.4336 33.4027 70.0823 33.244 70.8103 33.244C71.5383 33.244 72.1729 33.4027 72.7143 33.72C73.2649 34.0374 73.6849 34.4667 73.9743 35.008C74.2729 35.54 74.4223 36.1327 74.4223 36.786ZM73.4283 36.758C73.4376 36.1887 73.3209 35.7034 73.0783 35.302C72.8449 34.9007 72.5229 34.5974 72.1123 34.392C71.7016 34.1867 71.2536 34.084 70.7683 34.084C70.0403 34.084 69.4196 34.3174 68.9063 34.784C68.3929 35.2507 68.1083 35.9087 68.0523 36.758H73.4283Z" fill="#151515"/>
<path d="M78.9873 41.112C78.1099 41.112 77.3913 40.9114 76.8313 40.51C76.2806 40.0994 75.9726 39.544 75.9072 38.844H76.9153C76.9619 39.2734 77.1626 39.6234 77.5173 39.894C77.8813 40.1554 78.3666 40.286 78.9733 40.286C79.5053 40.286 79.9206 40.16 80.2193 39.908C80.5273 39.656 80.6813 39.3434 80.6813 38.97C80.6813 38.7087 80.5973 38.494 80.4293 38.326C80.2613 38.158 80.0466 38.0274 79.7852 37.934C79.5332 37.8314 79.1879 37.724 78.7493 37.612C78.1799 37.4627 77.7179 37.3134 77.3633 37.164C77.0086 37.0147 76.7052 36.7954 76.4532 36.506C76.2106 36.2074 76.0892 35.8107 76.0892 35.316C76.0892 34.9427 76.2012 34.5974 76.4252 34.28C76.6492 33.9627 76.9666 33.7107 77.3773 33.524C77.7879 33.3374 78.2546 33.244 78.7773 33.244C79.5986 33.244 80.2613 33.454 80.7653 33.874C81.2693 34.2847 81.5399 34.854 81.5772 35.582H80.5973C80.5693 35.134 80.3919 34.7747 80.0653 34.504C79.7479 34.224 79.3093 34.084 78.7493 34.084C78.2546 34.084 77.8532 34.2007 77.5452 34.434C77.2372 34.6674 77.0833 34.9567 77.0833 35.302C77.0833 35.6007 77.1719 35.848 77.3493 36.044C77.5359 36.2307 77.7646 36.38 78.0352 36.492C78.3059 36.5947 78.6699 36.7114 79.1273 36.842C79.6779 36.9914 80.1166 37.136 80.4433 37.276C80.7699 37.416 81.0499 37.6214 81.2832 37.892C81.5166 38.1627 81.6379 38.522 81.6473 38.97C81.6473 39.3807 81.5352 39.7494 81.3112 40.076C81.0872 40.3934 80.7746 40.6454 80.3733 40.832C79.9719 41.0187 79.5099 41.112 78.9873 41.112Z" fill="#151515"/>
<path d="M86.264 41.112C85.3866 41.112 84.668 40.9114 84.108 40.51C83.5573 40.0994 83.2493 39.544 83.184 38.844H84.192C84.2386 39.2734 84.4393 39.6234 84.794 39.894C85.158 40.1554 85.6433 40.286 86.25 40.286C86.782 40.286 87.1973 40.16 87.496 39.908C87.804 39.656 87.958 39.3434 87.958 38.97C87.958 38.7087 87.874 38.494 87.706 38.326C87.538 38.158 87.3233 38.0274 87.062 37.934C86.81 37.8314 86.4646 37.724 86.026 37.612C85.4566 37.4627 84.9946 37.3134 84.64 37.164C84.2853 37.0147 83.982 36.7954 83.73 36.506C83.4873 36.2074 83.366 35.8107 83.366 35.316C83.366 34.9427 83.478 34.5974 83.702 34.28C83.926 33.9627 84.2433 33.7107 84.654 33.524C85.0646 33.3374 85.5313 33.244 86.054 33.244C86.8753 33.244 87.538 33.454 88.042 33.874C88.546 34.2847 88.8166 34.854 88.854 35.582H87.874C87.846 35.134 87.6686 34.7747 87.342 34.504C87.0246 34.224 86.586 34.084 86.026 34.084C85.5313 34.084 85.13 34.2007 84.822 34.434C84.514 34.6674 84.36 34.9567 84.36 35.302C84.36 35.6007 84.4486 35.848 84.626 36.044C84.8126 36.2307 85.0413 36.38 85.312 36.492C85.5826 36.5947 85.9466 36.7114 86.404 36.842C86.9546 36.9914 87.3933 37.136 87.72 37.276C88.0466 37.416 88.3266 37.6214 88.56 37.892C88.7933 38.1627 88.9146 38.522 88.924 38.97C88.924 39.3807 88.812 39.7494 88.588 40.076C88.364 40.3934 88.0513 40.6454 87.65 40.832C87.2486 41.0187 86.7866 41.112 86.264 41.112Z" fill="#151515"/>
<path d="M91.3987 31.914C91.2027 31.914 91.0347 31.844 90.8947 31.704C90.7547 31.564 90.6847 31.3914 90.6847 31.186C90.6847 30.9807 90.7547 30.8127 90.8947 30.682C91.0347 30.542 91.2027 30.472 91.3987 30.472C91.5947 30.472 91.7627 30.542 91.9027 30.682C92.0427 30.8127 92.1127 30.9807 92.1127 31.186C92.1127 31.3914 92.0427 31.564 91.9027 31.704C91.7627 31.844 91.5947 31.914 91.3987 31.914ZM91.8887 33.356V41H90.9087V33.356H91.8887Z" fill="#151515"/>
<path d="M95.2139 35.05C95.4659 34.518 95.8532 34.084 96.3759 33.748C96.9079 33.412 97.5332 33.244 98.2519 33.244C98.9519 33.244 99.5772 33.4074 100.128 33.734C100.679 34.0514 101.108 34.5087 101.416 35.106C101.733 35.694 101.892 36.38 101.892 37.164C101.892 37.948 101.733 38.6387 101.416 39.236C101.108 39.8334 100.674 40.2954 100.114 40.622C99.5632 40.9487 98.9426 41.112 98.2519 41.112C97.5239 41.112 96.8939 40.9487 96.3619 40.622C95.8392 40.286 95.4566 39.852 95.2139 39.32V41H94.2479V30.64H95.2139V35.05ZM100.898 37.164C100.898 36.5294 100.772 35.9834 100.52 35.526C100.277 35.0594 99.9412 34.7047 99.5119 34.462C99.0826 34.2194 98.5972 34.098 98.0559 34.098C97.5332 34.098 97.0526 34.224 96.6139 34.476C96.1846 34.728 95.8439 35.0874 95.5919 35.554C95.3399 36.0207 95.2139 36.562 95.2139 37.178C95.2139 37.794 95.3399 38.3354 95.5919 38.802C95.8439 39.2687 96.1846 39.628 96.6139 39.88C97.0526 40.132 97.5332 40.258 98.0559 40.258C98.5972 40.258 99.0826 40.1367 99.5119 39.894C99.9412 39.642 100.277 39.2827 100.52 38.816C100.772 38.34 100.898 37.7894 100.898 37.164Z" fill="#151515"/>
<path d="M104.325 31.914C104.129 31.914 103.961 31.844 103.821 31.704C103.681 31.564 103.611 31.3914 103.611 31.186C103.611 30.9807 103.681 30.8127 103.821 30.682C103.961 30.542 104.129 30.472 104.325 30.472C104.521 30.472 104.689 30.542 104.829 30.682C104.969 30.8127 105.039 30.9807 105.039 31.186C105.039 31.3914 104.969 31.564 104.829 31.704C104.689 31.844 104.521 31.914 104.325 31.914ZM104.815 33.356V41H103.835V33.356H104.815Z" fill="#151515"/>
<path d="M108.154 30.64V41H107.174V30.64H108.154Z" fill="#151515"/>
<path d="M111.004 31.914C110.808 31.914 110.64 31.844 110.5 31.704C110.36 31.564 110.29 31.3914 110.29 31.186C110.29 30.9807 110.36 30.8127 110.5 30.682C110.64 30.542 110.808 30.472 111.004 30.472C111.2 30.472 111.368 30.542 111.508 30.682C111.648 30.8127 111.718 30.9807 111.718 31.186C111.718 31.3914 111.648 31.564 111.508 31.704C111.368 31.844 111.2 31.914 111.004 31.914ZM111.494 33.356V41H110.514V33.356H111.494Z" fill="#151515"/>
<path d="M115.127 34.182V38.928C115.127 39.3947 115.215 39.7167 115.393 39.894C115.57 40.0714 115.883 40.16 116.331 40.16H117.227V41H116.177C115.486 41 114.973 40.8414 114.637 40.524C114.301 40.1974 114.133 39.6654 114.133 38.928V34.182H113.069V33.356H114.133V31.438H115.127V33.356H117.227V34.182H115.127Z" fill="#151515"/>
<path d="M125.283 33.356L120.747 44.598H119.725L121.209 40.958L118.073 33.356H119.151L121.755 39.88L124.275 33.356H125.283Z" fill="#151515"/>
<path d="M6.69109 19.2024C6.69109 19.2024 9.67658 23.6141 15.2211 23.6141C18.0847 23.6141 21.3139 22.4376 21.3139 20.2612C21.3139 17.9082 19.2423 16.7318 14.9164 15.9082C8.88452 14.7318 4.61953 12.4376 4.61953 7.32C4.61953 4.5353 6.65819 1.78235 10.0677 0.405884C4.34413 2.34471 0.23999 7.60706 0.23999 13.7953C0.23999 17.0035 1.34279 19.9624 3.20355 22.3388L6.69109 19.2024Z" fill="#4B54A1"/>
<path d="M25.2853 3.72595L22.0451 6.96713C22.0451 6.96713 19.2424 3.96713 14.9774 3.96713C11.3826 3.96713 9.61572 5.67301 9.61572 7.43772C9.61572 9.49654 11.8091 10.6142 16.4397 11.5554C21.8014 12.673 26.371 14.6142 26.371 20.1436C26.371 21.6742 25.8812 22.9883 25.0526 24.0824C27.8711 21.4977 29.6283 17.8448 29.6283 13.7954C29.6283 9.85889 27.9674 6.29654 25.2853 3.72595Z" fill="#76C094"/>
<path d="M46.0839 18.6213C48.2042 18.6213 49.374 17.6801 49.374 16.7154C49.374 15.3507 47.4731 14.9977 45.4015 14.6448C43.1593 14.2918 38.3338 13.4918 38.3338 9.37419C38.3338 5.28008 42.2576 4.17419 45.4015 4.17419C48.521 4.17419 50.4951 5.09184 52.4448 6.48008L50.3001 9.30361C48.7647 8.24478 46.9856 7.5389 45.2553 7.5389C44.1342 7.5389 42.1845 7.86831 42.1845 9.23302C42.1845 10.4565 44.1098 10.7389 45.7183 11.0683C48.6185 11.6565 53.2247 12.0095 53.2247 16.6213C53.2247 20.1977 50.3489 21.9624 46.1326 21.9624C42.282 21.9624 39.7473 20.6448 38.0901 19.2801L40.1373 16.433C41.429 17.4683 44.0367 18.6213 46.0839 18.6213Z" fill="black"/>
<path d="M60.4873 9.98589C61.0479 9.25648 62.6564 8.40942 64.5574 8.40942C68.798 8.40942 71.2839 11.4447 71.2839 15.1624C71.2839 18.88 68.798 21.9153 64.5574 21.9153C62.6077 21.9153 61.1697 21.1624 60.4873 20.2918V25.7977H56.8804V8.69178H60.4873V9.98589ZM64.0212 18.833C66.3365 18.833 67.7013 17.28 67.7013 15.1624C67.7013 13.1153 66.2634 11.5153 64.0212 11.5153C61.7546 11.5153 60.3411 12.9035 60.3411 15.1624C60.3411 17.3035 61.7546 18.833 64.0212 18.833Z" fill="black"/>
<path d="M75.2078 16.386V8.73889H78.8878V16.386C78.8878 18.3624 80.1064 18.9742 81.4956 18.9742C82.5192 18.9742 84.1521 18.386 84.0546 15.586V8.73889H87.7103V21.633H84.0546V20.5271C83.1772 21.3977 81.8855 21.9154 80.472 21.9154C76.6213 21.9154 75.2078 19.7271 75.2078 16.386Z" fill="black"/>
<path d="M95.8259 15.9154V21.6331H92.1946V8.69188H95.8259V10.4095C97.1907 8.66835 99.4572 8.43305 100.408 8.45658V11.8919C99.5303 11.8213 95.8259 11.986 95.8259 15.9154Z" fill="black"/>
<path d="M104.21 21.633V4.43298H108.06V21.633H104.21Z" fill="black"/>
<path d="M120.563 7.65651V21.633H116.688V7.65651H111.497V4.43298H125.729V7.65651H120.563Z" fill="black"/>
</svg>
